<?xml version="1.0" encoding="UTF-8"?>
<!DOCTYPE svg PUBLIC "-//W3C//DTD SVG 1.1//EN" "http://www.w3.org/Graphics/SVG/1.1/DTD/svg11.dtd">
<!-- Creator: CorelDRAW -->
<svg xmlns="http://www.w3.org/2000/svg" xml:space="preserve" width="500px" height="120px" style="shape-rendering:geometricPrecision; text-rendering:geometricPrecision; image-rendering:optimizeQuality; fill-rule:evenodd; clip-rule:evenodd"
viewBox="0 0 500 120"
 xmlns:xlink="http://www.w3.org/1999/xlink"
 version="1.1">
 <defs>
  <style type="text/css">
   <![CDATA[
    .fil0 {fill:black}
    .fil1 {fill:black;fill-rule:nonzero}
   ]]>
  </style>
 </defs>
 <g id="Layer_x0020_1">
  <metadata id="CorelCorpID_0Corel-Layer"/>
  <g id="_425251232">
   <g>
    <path id="_45010976" class="fil0" d="M144.182 40.2237l52.2084 0 0 64.7778 32.8714 0 0 -64.7778 53.1746 0c-0.966145,-28.0383 -25.1375,-25.1375 -56.0754,-25.1375l-82.179 0 0 25.1375z"/>
    <path id="_265109712" class="fil0" d="M102.609 72.129l0 -20.3032c0.967326,-20.3044 -3.86694,-35.7733 32.8714,-36.7395l0 53.1746c0,20.3044 4.83427,35.7733 -31.9052,36.7395l0 0 -0.966145 0 -59.9435 0 0 0 0 0c-27.071,-0.966145 -31.9052,-8.70121 -32.8714,-21.2694l0 -5.80159 0 -6.76774c0.967326,-12.5681 4.83427,-21.2694 32.8714,-22.2367l0 23.204 59.9435 0 0 0z"/>
    <path id="_262460360" class="fil0" d="M324.01 49.8923l0 0 0 -34.806c-26.1048,0 -31.9052,7.73506 -32.8714,19.3371l0 59.9423 0 10.6359 32.8714 0 0 -55.1092 0 0z"/>
   </g>
   <path id="_265103976" class="fil1" d="M347.837 35.0505l0 -11.4496 -3.9508 0 0 11.2748c0,1.01575 -0.207875,1.75394 -0.624805,2.21221 -0.41693,0.458269 -0.990948,0.687404 -1.72441,0.687404 -0.616537,0 -1.17992,-0.154725 -1.6878,-0.462994 -0.507876,-0.308269 -1.01221,-0.73701 -1.513,-1.28741l-2.42481 2.70001c0.600002,0.716931 1.363,1.33347 2.2878,1.85079 0.924806,0.516143 2.07048,0.774806 3.43702,0.774806 0.916538,0 1.75867,-0.129922 2.5252,-0.387403 0.766538,-0.258662 1.42087,-0.650789 1.963,-1.1752 0.540947,-0.525592 0.962601,-1.17992 1.2626,-1.963 0.300001,-0.783073 0.450001,-1.70788 0.450001,-2.77442z"/>
   <path id="_2651039761" class="fil1" d="M366.736 33.4749l0 -9.87405 -3.84922 0 0 10.024c0,1.40079 -0.333072,2.4508 -1.0004,3.15001 -0.666144,0.700396 -1.59095,1.05 -2.77442,1.05 -1.18347,0 -2.10827,-0.3626 -2.7756,-1.08662 -0.666144,-0.725199 -0.999216,-1.80473 -0.999216,-3.23741l0 -9.90003 -3.85041 0 0 9.99924c0,2.58308 0.675593,4.52482 2.0256,5.82522 1.35,1.3004 3.19962,1.95001 5.54884,1.95001 1.16693,0 2.2252,-0.162993 3.17481,-0.487797 0.95079,-0.324804 1.75867,-0.816144 2.42599,-1.4752 0.666144,-0.657876 1.17874,-1.47874 1.53662,-2.46261 0.359056,-0.98268 0.537403,-2.14135 0.537403,-3.47481z"/>
   <path id="_26510397612" class="fil1" d="M385.785 41.1001l-4.27442 -6.25041c1.11615,-0.415749 2.02087,-1.07008 2.71182,-1.96182 0.692128,-0.891735 1.03819,-2.04568 1.03819,-3.463l0 -0.0496065c0,-1.81654 -0.578742,-3.23269 -1.73741,-4.24962 -1.15867,-1.01693 -2.77914,-1.52481 -4.86261,-1.52481l-7.99963 0 0 17.4993 3.85041 0 0 -5.59962 3.02481 0 3.74883 5.59962 4.50001 0zm-4.42442 -11.4744c0,0.750002 -0.253938,1.35 -0.762995,1.80001 -0.507876,0.450001 -1.23662,0.674412 -2.18741,0.674412l-3.89883 0 0 -5.02443 3.82442 0c0.949609,0 1.69134,0.207875 2.2252,0.624805 0.532679,0.41693 0.799609,1.04174 0.799609,1.87442l0 0.0507876z"/>
   <path id="_265103976123" class="fil1" d="M403.709 33.4749l0 -9.87405 -3.84922 0 0 10.024c0,1.40079 -0.333072,2.4508 -1.0004,3.15001 -0.666144,0.700396 -1.59095,1.05 -2.77442,1.05 -1.18347,0 -2.10827,-0.3626 -2.7756,-1.08662 -0.666144,-0.725199 -0.999216,-1.80473 -0.999216,-3.23741l0 -9.90003 -3.85041 0 0 9.99924c0,2.58308 0.675593,4.52482 2.0256,5.82522 1.35,1.3004 3.19962,1.95001 5.54884,1.95001 1.16693,0 2.2252,-0.162993 3.17481,-0.487797 0.95079,-0.324804 1.75867,-0.816144 2.42599,-1.4752 0.666144,-0.657876 1.17874,-1.47874 1.53662,-2.46261 0.359056,-0.98268 0.537403,-2.14135 0.537403,-3.47481z"/>
   <path id="_2651039761234" class="fil1" d="M420.284 35.9257l0 -0.0507876c0,-0.766538 -0.120473,-1.42441 -0.3626,-1.97481 -0.242127,-0.549214 -0.600002,-1.02874 -1.07481,-1.43741 -0.474805,-0.408663 -1.05827,-0.75827 -1.7504,-1.05 -0.690947,-0.291733 -1.47874,-0.553939 -2.36221,-0.787798 -0.750002,-0.199607 -1.37126,-0.374411 -1.8626,-0.524411 -0.49134,-0.15 -0.878743,-0.308269 -1.16221,-0.474805 -0.283465,-0.166536 -0.479529,-0.354332 -0.58701,-0.562206 -0.108662,-0.209056 -0.162993,-0.454726 -0.162993,-0.738191l0 -0.0496065c0,-0.433466 0.187796,-0.796065 0.562206,-1.0878 0.375592,-0.291733 0.937798,-0.437009 1.6878,-0.437009 0.750002,0 1.5,0.153544 2.25001,0.461812 0.750002,0.308269 1.51654,0.729924 2.29961,1.2626l1.99961 -2.89962c-0.900003,-0.716931 -1.88741,-1.26615 -2.96221,-1.65001 -1.07481,-0.383859 -2.25355,-0.575199 -3.53741,-0.575199 -0.900003,0 -1.72441,0.125197 -2.47442,0.375592 -0.750002,0.249213 -1.39607,0.60827 -1.9382,1.07481 -0.540947,0.466537 -0.96142,1.02048 -1.26142,1.66182 -0.300001,0.642522 -0.450001,1.363 -0.450001,2.16261l0 0.0496065c0,0.866932 0.137008,1.59213 0.412206,2.1756 0.275198,0.583466 0.662601,1.07126 1.16221,1.46221 0.499608,0.392127 1.10788,0.720475 1.82481,0.987405 0.716931,0.26693 1.51654,0.509057 2.40001,0.725199 0.733467,0.183071 1.32874,0.357875 1.78819,0.525592 0.458269,0.166536 0.816144,0.333072 1.07481,0.499608 0.257481,0.166536 0.433466,0.346064 0.524411,0.537403 0.0921263,0.191339 0.138189,0.412206 0.138189,0.662601l0 0.0496065c0,0.517324 -0.220867,0.921263 -0.662601,1.213 -0.441734,0.291733 -1.063,0.437009 -1.8626,0.437009 -1.0004,0 -1.92048,-0.191339 -2.76261,-0.575199 -0.842129,-0.382678 -1.663,-0.900003 -2.46261,-1.54961l-2.27481 2.72481c1.05,0.949609 2.21694,1.65473 3.49962,2.113 1.28386,0.458269 2.59135,0.687404 3.92482,0.687404 0.95079,0 1.81654,-0.121654 2.6008,-0.3626 0.783073,-0.242127 1.45748,-0.591734 2.02442,-1.05 0.566931,-0.458269 1.00866,-1.0252 1.3252,-1.70079 0.316536,-0.674412 0.474805,-1.44567 0.474805,-2.31142z"/>
   <path id="_26510397612345" class="fil1" d="M440.682 41.1001l-7.50002 -17.6245 -3.54922 0 -7.50002 17.6245 3.92482 0 1.6004 -3.92482 7.39963 0 1.59922 3.92482 4.02521 0zm-6.99923 -7.32522l-4.65001 0 2.32442 -5.67403 2.3256 5.67403z"/>
   <polygon id="_265103976123456" class="fil1" points="458.932,41.1001 458.932,23.6009 455.132,23.6009 455.132,34.3749 446.933,23.6009 443.382,23.6009 443.382,41.1001 447.182,41.1001 447.182,29.9753 455.657,41.1001 "/>
   <polygon id="_2651039761234567" class="fil1" points="350.911,54.775 350.911,51.2258 336.412,51.2258 336.412,54.775 341.737,54.775 341.737,68.725 345.587,68.725 345.587,54.775 "/>
   <polygon id="_26510397612345678" class="fil1" points="367.186,68.725 367.186,65.2998 357.686,65.2998 357.686,61.6254 365.936,61.6254 365.936,58.2002 357.686,58.2002 357.686,54.651 367.062,54.651 367.062,51.2258 353.862,51.2258 353.862,68.725 "/>
   <polygon id="_265103976123456789" class="fil1" points="386.536,68.725 379.085,58.6502 386.211,51.2258 381.561,51.2258 374.461,58.8758 374.461,51.2258 370.611,51.2258 370.611,68.725 374.461,68.725 374.461,63.3746 376.486,61.2758 381.911,68.725 "/>
   <polygon id="_26510397612345678910" class="fil1" points="404.41,68.725 404.41,51.2258 400.61,51.2258 400.61,61.9998 392.411,51.2258 388.86,51.2258 388.86,68.725 392.66,68.725 392.66,57.6002 401.134,68.725 "/>
   <path id="_2651039761234567891011" class="fil1" d="M426.434 59.9754l0 -0.0496065c0,-1.25079 -0.229135,-2.42127 -0.687404,-3.51261 -0.458269,-1.09252 -1.09961,-2.04213 -1.9252,-2.85001 -0.824412,-0.809058 -1.80355,-1.4504 -2.93741,-1.9252 -1.13268,-0.474805 -2.37402,-0.712207 -3.72403,-0.712207 -1.35,0 -2.59607,0.237402 -3.7382,0.712207 -1.14095,0.474805 -2.12481,1.12559 -2.94922,1.95001 -0.825593,0.824412 -1.47048,1.78347 -1.9382,2.87481 -0.466537,1.09134 -0.699215,2.263 -0.699215,3.51261l0 0.0496065c0,1.25079 0.229135,2.42127 0.687404,3.51261 0.458269,1.09134 1.09961,2.04213 1.9252,2.85001 0.824412,0.807877 1.80355,1.4504 2.93741,1.9252 1.13268,0.474805 2.37402,0.712207 3.72403,0.712207 1.35,0 2.59607,-0.237402 3.7382,-0.712207 1.14095,-0.474805 2.12481,-1.12559 2.94922,-1.95001 0.825593,-0.825593 1.47166,-1.78347 1.9382,-2.87481 0.466537,-1.09252 0.699215,-2.263 0.699215,-3.51261zm-4.02403 0.0496065c0,0.750002 -0.129922,1.45394 -0.387403,2.113 -0.258662,0.657876 -0.617718,1.23662 -1.07599,1.73741 -0.458269,0.499608 -1.01221,0.891735 -1.66182,1.1752 -0.649608,0.282284 -1.35827,0.424017 -2.12481,0.424017 -0.783073,0 -1.49646,-0.145276 -2.1378,-0.437009 -0.641341,-0.291733 -1.2,-0.687404 -1.67481,-1.18701 -0.474805,-0.500789 -0.842129,-1.08426 -1.09961,-1.7504 -0.258662,-0.666144 -0.387403,-1.37481 -0.387403,-2.12481l0 -0.0496065c0,-0.750002 0.128741,-1.45512 0.387403,-2.113 0.257481,-0.657876 0.616537,-1.2378 1.07481,-1.73741 0.458269,-0.499608 1.00748,-0.891735 1.65001,-1.1752 0.641341,-0.283465 1.35355,-0.425198 2.13662,-0.425198 0.766538,0 1.4752,0.146457 2.12481,0.43819 0.650789,0.291733 1.213,0.687404 1.6878,1.18701 0.474805,0.499608 0.842129,1.08307 1.10079,1.7504 0.257481,0.666144 0.387403,1.37481 0.387403,2.12481l0 0.0496065z"/>
   <polygon id="_265103976123456789101112" class="fil1" points="442.433,68.725 442.433,65.2254 433.709,65.2254 433.709,51.2258 429.859,51.2258 429.859,68.725 "/>
   <path id="_26510397612345678910111213" class="fil1" d="M463.158 59.9754l0 -0.0496065c0,-1.25079 -0.229135,-2.42127 -0.687404,-3.51261 -0.458269,-1.09252 -1.09961,-2.04213 -1.9252,-2.85001 -0.824412,-0.809058 -1.80355,-1.4504 -2.93741,-1.9252 -1.13268,-0.474805 -2.37402,-0.712207 -3.72403,-0.712207 -1.35,0 -2.59607,0.237402 -3.7382,0.712207 -1.14095,0.474805 -2.12481,1.12559 -2.94922,1.95001 -0.825593,0.824412 -1.47048,1.78347 -1.9382,2.87481 -0.466537,1.09134 -0.699215,2.263 -0.699215,3.51261l0 0.0496065c0,1.25079 0.229135,2.42127 0.687404,3.51261 0.458269,1.09134 1.09961,2.04213 1.9252,2.85001 0.824412,0.807877 1.80355,1.4504 2.93741,1.9252 1.13268,0.474805 2.37402,0.712207 3.72403,0.712207 1.35,0 2.59607,-0.237402 3.7382,-0.712207 1.14095,-0.474805 2.12481,-1.12559 2.94922,-1.95001 0.825593,-0.825593 1.47166,-1.78347 1.9382,-2.87481 0.466537,-1.09252 0.699215,-2.263 0.699215,-3.51261zm-4.02403 0.0496065c0,0.750002 -0.129922,1.45394 -0.387403,2.113 -0.258662,0.657876 -0.617718,1.23662 -1.07599,1.73741 -0.458269,0.499608 -1.01221,0.891735 -1.66182,1.1752 -0.649608,0.282284 -1.35827,0.424017 -2.12481,0.424017 -0.783073,0 -1.49646,-0.145276 -2.1378,-0.437009 -0.641341,-0.291733 -1.2,-0.687404 -1.67481,-1.18701 -0.474805,-0.500789 -0.842129,-1.08426 -1.09961,-1.7504 -0.258662,-0.666144 -0.387403,-1.37481 -0.387403,-2.12481l0 -0.0496065c0,-0.750002 0.128741,-1.45512 0.387403,-2.113 0.257481,-0.657876 0.616537,-1.2378 1.07481,-1.73741 0.458269,-0.499608 1.00748,-0.891735 1.65001,-1.1752 0.641341,-0.283465 1.35355,-0.425198 2.13662,-0.425198 0.766538,0 1.4752,0.146457 2.12481,0.43819 0.650789,0.291733 1.213,0.687404 1.6878,1.18701 0.474805,0.499608 0.842129,1.08307 1.10079,1.7504 0.257481,0.666144 0.387403,1.37481 0.387403,2.12481l0 0.0496065z"/>
   <path id="_2651039761234567891011121314" class="fil1" d="M482.483 66.2506l0 -7.60042 -7.60042 0 0 3.32481 3.87521 0 0 2.5004c-0.983861,0.699215 -2.19213,1.05 -3.62481,1.05 -0.783073,0 -1.49646,-0.138189 -2.1378,-0.412206 -0.641341,-0.275198 -1.2,-0.662601 -1.67481,-1.16339 -0.474805,-0.499608 -0.842129,-1.08662 -1.09961,-1.76221 -0.258662,-0.674412 -0.387403,-1.4126 -0.387403,-2.21221l0 -0.0496065c0,-0.750002 0.128741,-1.45512 0.387403,-2.113 0.257481,-0.657876 0.616537,-1.23307 1.07481,-1.72441 0.458269,-0.492521 0.990948,-0.883467 1.59922,-1.1752 0.60827,-0.291733 1.2626,-0.43819 1.963,-0.43819 0.499608,0 0.957877,0.0425198 1.37481,0.125197 0.41693,0.0838585 0.804333,0.200788 1.16221,0.350789 0.359056,0.15 0.703939,0.333072 1.03819,0.549214 0.333072,0.217324 0.666144,0.466537 0.999216,0.750002l2.42481 -2.92442c-0.450001,-0.383859 -0.916538,-0.725199 -1.39961,-1.0252 -0.483072,-0.300001 -1.0004,-0.550395 -1.54961,-0.750002 -0.550395,-0.199607 -1.14567,-0.354332 -1.78819,-0.462994 -0.641341,-0.107481 -1.35355,-0.161812 -2.13662,-0.161812 -1.33347,0 -2.55828,0.237402 -3.6756,0.712207 -1.11615,0.474805 -2.08347,1.12559 -2.89962,1.95001 -0.816144,0.824412 -1.45394,1.78347 -1.91221,2.87481 -0.458269,1.09134 -0.687404,2.263 -0.687404,3.51261l0 0.0496065c0,1.3004 0.22441,2.5004 0.674412,3.60001 0.450001,1.09961 1.07953,2.0504 1.88741,2.85001 0.809058,0.799609 1.7752,1.4256 2.9008,1.8756 1.12441,0.44882 2.37048,0.674412 3.73702,0.674412 1.6004,0 3.02009,-0.270473 4.26261,-0.812601 1.24134,-0.540947 2.31261,-1.19528 3.21261,-1.96182z"/>
   <polygon id="_265103976123456789101112131415" class="fil1" points="490.207,68.725 490.207,51.2258 486.357,51.2258 486.357,68.725 "/>
   <polygon id="_26510397612345678910111213141516" class="fil1" points="341.687,96.3499 341.687,78.8506 337.836,78.8506 337.836,96.3499 "/>
   <polygon id="_2651039761234567891011121314151617" class="fil1" points="361.611,96.3499 361.611,78.8506 357.811,78.8506 357.811,89.6247 349.612,78.8506 346.062,78.8506 346.062,96.3499 349.861,96.3499 349.861,85.2251 358.336,96.3499 "/>
   <polygon id="_265103976123456789101112131415161718" class="fil1" points="379.135,82.3503 379.135,78.8506 365.811,78.8506 365.811,96.3499 369.661,96.3499 369.661,89.5751 378.011,89.5751 378.011,86.0755 369.661,86.0755 369.661,82.3503 "/>
   <path id="_26510397612345678910111213141516171819" class="fil1" d="M400.035 87.6003l0 -0.0496065c0,-1.25079 -0.229135,-2.42127 -0.687404,-3.51261 -0.458269,-1.09252 -1.09961,-2.04213 -1.9252,-2.85001 -0.824412,-0.809058 -1.80355,-1.4504 -2.93741,-1.9252 -1.13268,-0.474805 -2.37402,-0.712207 -3.72403,-0.712207 -1.35,0 -2.59607,0.237402 -3.7382,0.712207 -1.14095,0.474805 -2.12481,1.12559 -2.94922,1.95001 -0.825593,0.824412 -1.47048,1.78347 -1.9382,2.87481 -0.466537,1.09134 -0.699215,2.263 -0.699215,3.51261l0 0.0496065c0,1.25079 0.229135,2.42127 0.687404,3.51261 0.458269,1.09134 1.09961,2.04213 1.9252,2.85001 0.824412,0.807877 1.80355,1.4504 2.93741,1.9252 1.13268,0.474805 2.37402,0.712207 3.72403,0.712207 1.35,0 2.59607,-0.237402 3.7382,-0.712207 1.14095,-0.474805 2.12481,-1.12559 2.94922,-1.95001 0.825593,-0.825593 1.47166,-1.78347 1.9382,-2.87481 0.466537,-1.09252 0.699215,-2.263 0.699215,-3.51261zm-4.02403 0.0496065c0,0.750002 -0.129922,1.45394 -0.387403,2.113 -0.258662,0.657876 -0.617718,1.23662 -1.07599,1.73741 -0.458269,0.499608 -1.01221,0.891735 -1.66182,1.1752 -0.649608,0.282284 -1.35827,0.424017 -2.12481,0.424017 -0.783073,0 -1.49646,-0.145276 -2.1378,-0.437009 -0.641341,-0.291733 -1.2,-0.687404 -1.67481,-1.18701 -0.474805,-0.500789 -0.842129,-1.08426 -1.09961,-1.7504 -0.258662,-0.666144 -0.387403,-1.37481 -0.387403,-2.12481l0 -0.0496065c0,-0.750002 0.128741,-1.45512 0.387403,-2.113 0.257481,-0.657876 0.616537,-1.2378 1.07481,-1.73741 0.458269,-0.499608 1.00748,-0.891735 1.65001,-1.1752 0.641341,-0.283465 1.35355,-0.425198 2.13662,-0.425198 0.766538,0 1.4752,0.146457 2.12481,0.43819 0.650789,0.291733 1.213,0.687404 1.6878,1.18701 0.474805,0.499608 0.842129,1.08307 1.10079,1.7504 0.257481,0.666144 0.387403,1.37481 0.387403,2.12481l0 0.0496065z"/>
   <path id="_2651039761234567891011121314151617181920" class="fil1" d="M418.584 96.3499l-4.27442 -6.25041c1.11615,-0.415749 2.02087,-1.07008 2.71182,-1.96182 0.692128,-0.891735 1.03819,-2.04568 1.03819,-3.463l0 -0.0496065c0,-1.81654 -0.578742,-3.23269 -1.73741,-4.24962 -1.15867,-1.01693 -2.77914,-1.52481 -4.86261,-1.52481l-7.99963 0 0 17.4993 3.85041 0 0 -5.59962 3.02481 0 3.74883 5.59962 4.50001 0zm-4.42442 -11.4744c0,0.750002 -0.253938,1.35 -0.762995,1.80001 -0.507876,0.450001 -1.23662,0.674412 -2.18741,0.674412l-3.89883 0 0 -5.02443 3.82442 0c0.949609,0 1.69134,0.207875 2.2252,0.624805 0.532679,0.41693 0.799609,1.04174 0.799609,1.87442l0 0.0507876z"/>
   <polygon id="_265103976123456789101112131415161718192021" class="fil1" points="439.034,96.3499 439.034,78.8506 434.884,78.8506 430.284,86.2503 425.685,78.8506 421.534,78.8506 421.534,96.3499 425.309,96.3499 425.309,85.0007 430.184,92.4003 430.284,92.4003 435.209,84.9251 435.209,96.3499 "/>
   <path id="_26510397612345678910111213141516171819202122" class="fil1" d="M460.283 96.3499l-7.50002 -17.6245 -3.54922 0 -7.50002 17.6245 3.92482 0 1.6004 -3.92482 7.39963 0 1.59922 3.92482 4.02521 0zm-6.99923 -7.32522l-4.65001 0 2.32442 -5.67403 2.3256 5.67403z"/>
   <path id="_2651039761234567891011121314151617181920212223" class="fil1" d="M475.633 91.1755l0 -0.0507876c0,-0.766538 -0.120473,-1.42441 -0.3626,-1.97481 -0.242127,-0.549214 -0.600002,-1.02874 -1.07481,-1.43741 -0.474805,-0.408663 -1.05827,-0.75827 -1.7504,-1.05 -0.690947,-0.291733 -1.47874,-0.553939 -2.36221,-0.787798 -0.750002,-0.199607 -1.37126,-0.374411 -1.8626,-0.524411 -0.49134,-0.15 -0.878743,-0.308269 -1.16221,-0.474805 -0.283465,-0.166536 -0.479529,-0.354332 -0.58701,-0.562206 -0.108662,-0.209056 -0.162993,-0.454726 -0.162993,-0.738191l0 -0.0496065c0,-0.433466 0.187796,-0.796065 0.562206,-1.0878 0.375592,-0.291733 0.937798,-0.437009 1.6878,-0.437009 0.750002,0 1.5,0.153544 2.25001,0.461812 0.750002,0.308269 1.51654,0.729924 2.29961,1.2626l1.99961 -2.89962c-0.900003,-0.716931 -1.88741,-1.26615 -2.96221,-1.65001 -1.07481,-0.383859 -2.25355,-0.575199 -3.53741,-0.575199 -0.900003,0 -1.72441,0.125197 -2.47442,0.375592 -0.750002,0.249213 -1.39607,0.60827 -1.9382,1.07481 -0.540947,0.466537 -0.96142,1.02048 -1.26142,1.66182 -0.300001,0.642522 -0.450001,1.363 -0.450001,2.16261l0 0.0496065c0,0.866932 0.137008,1.59213 0.412206,2.1756 0.275198,0.583466 0.662601,1.07126 1.16221,1.46221 0.499608,0.392127 1.10788,0.720475 1.82481,0.987405 0.716931,0.26693 1.51654,0.509057 2.40001,0.725199 0.733467,0.183071 1.32874,0.357875 1.78819,0.525592 0.458269,0.166536 0.816144,0.333072 1.07481,0.499608 0.257481,0.166536 0.433466,0.346064 0.524411,0.537403 0.0921263,0.191339 0.138189,0.412206 0.138189,0.662601l0 0.0496065c0,0.517324 -0.220867,0.921263 -0.662601,1.213 -0.441734,0.291733 -1.063,0.437009 -1.8626,0.437009 -1.0004,0 -1.92048,-0.191339 -2.76261,-0.575199 -0.842129,-0.382678 -1.663,-0.900003 -2.46261,-1.54961l-2.27481 2.72481c1.05,0.949609 2.21694,1.65473 3.49962,2.113 1.28386,0.458269 2.59135,0.687404 3.92482,0.687404 0.95079,0 1.81654,-0.121654 2.6008,-0.3626 0.783073,-0.242127 1.45748,-0.591734 2.02442,-1.05 0.566931,-0.458269 1.00866,-1.0252 1.3252,-1.70079 0.316536,-0.674412 0.474805,-1.44567 0.474805,-2.31142z"/>
   <polygon id="_265103976123456789101112131415161718192021222324" class="fil1" points="483.007,96.3499 483.007,78.8506 479.157,78.8506 479.157,96.3499 "/>
  </g>
 </g>
</svg>
