<?xml version="1.0" encoding="UTF-8"?>
<!DOCTYPE svg PUBLIC "-//W3C//DTD SVG 1.1//EN" "http://www.w3.org/Graphics/SVG/1.1/DTD/svg11.dtd">
<!-- Creator: CorelDRAW X7 -->
<svg xmlns="http://www.w3.org/2000/svg" xml:space="preserve" width="284px" height="120px" version="1.1" style="shape-rendering:geometricPrecision; text-rendering:geometricPrecision; image-rendering:optimizeQuality; fill-rule:evenodd; clip-rule:evenodd"
viewBox="0 0 284 120"
 xmlns:xlink="http://www.w3.org/1999/xlink">
 <defs>
  <style type="text/css">
   <![CDATA[
    .fil4 {fill:#AF3335}
    .fil3 {fill:#BE3338}
    .fil2 {fill:#C8353D}
    .fil1 {fill:#D3383C}
    .fil6 {fill:#DE3C37}
    .fil0 {fill:#E03A3C}
    .fil5 {fill:white}
    .fil7 {fill:#A8A8A8;fill-rule:nonzero}
   ]]>
  </style>
 </defs>
 <g id="Layer_x0020_1">
  <metadata id="CorelCorpID_0Corel-Layer"/>
  <g id="_1781640747824">
   <g>
    <path class="fil0" d="M59 1c32,0 58,26 58,58 0,32 -26,58 -58,58 -32,0 -58,-26 -58,-58 0,-32 26,-58 58,-58z"/>
    <path class="fil1" d="M51 22c25,0 46,21 46,46 0,26 -21,46 -46,46 -25,0 -46,-20 -46,-46 0,-25 21,-46 46,-46z"/>
    <path class="fil2" d="M45 36c21,0 38,17 38,38 0,21 -17,38 -38,38 -21,0 -38,-17 -38,-38 0,-21 17,-38 38,-38z"/>
    <path class="fil3" d="M41 49c17,0 30,14 30,31 0,17 -13,30 -30,30 -17,0 -31,-13 -31,-30 0,-17 14,-31 31,-31z"/>
    <path class="fil4" d="M38 60c13,0 24,11 24,25 0,13 -11,24 -24,24 -14,0 -25,-11 -25,-24 0,-14 11,-25 25,-25z"/>
   </g>
   <g>
    <g>
     <g>
      <polygon class="fil5" points="105,65 105,100 93,100 93,65 "/>
      <path class="fil5" d="M92 51c0,-2 1,-4 2,-5 1,-1 3,-2 5,-2 2,0 4,1 5,2 1,1 2,3 2,5 0,2 -1,3 -2,5 -1,1 -3,2 -5,2 -2,0 -4,-1 -5,-2 -1,-2 -2,-3 -2,-5z"/>
     </g>
     <path class="fil5" d="M67 65l0 -2 0 -5 0 -5 11 0 0 5 0 5 0 2 10 0 0 9 -10 0 0 13c0,1 1,2 2,3 0,1 1,1 3,1 0,0 0,0 0,0l4 -1 2 9 -3 1c0,0 -1,0 -1,0 -1,0 -2,0 -3,0 -2,0 -4,0 -6,-1 -2,0 -3,-1 -5,-2 -1,-2 -2,-3 -3,-4 -1,-2 -1,-4 -1,-5l0 -14 -5 0 0 -9 5 0z"/>
     <g>
      <path class="fil5" d="M42 108c0,0 0,0 0,0 0,0 0,0 0,0 1,0 1,0 2,0 0,0 1,-1 1,-1 1,0 1,-1 1,-1 1,-1 1,-1 1,-2l0 -39 11 0 0 39c0,2 0,4 -1,6 -1,2 -2,3 -4,5 -1,1 -3,2 -5,3 -1,1 -3,1 -6,1 -1,0 -2,0 -4,0l-3 -1 3 -11 4 1z"/>
      <path class="fil5" d="M45 51c0,-2 1,-4 2,-5 2,-1 3,-2 5,-2 2,0 4,1 5,2 2,1 2,3 2,5 0,2 0,3 -2,5 -1,1 -3,2 -5,2 -2,0 -3,-1 -5,-2 -1,-2 -2,-3 -2,-5z"/>
     </g>
    </g>
    <g>
     <g>
      <path class="fil6" d="M271 67l0 -2 12 0 0 35 -12 0 0 -2c0,0 0,0 0,0 -2,1 -6,2 -9,2 -3,0 -5,0 -8,-1 -2,-1 -4,-3 -6,-4 -2,-2 -3,-4 -4,-6 -1,-2 -2,-4 -2,-7 0,-2 1,-4 2,-6 1,-2 2,-4 4,-6 2,-2 4,-3 6,-4 3,-1 5,-1 8,-1 3,0 7,1 9,2 0,0 0,0 0,0zm-8 7c-2,0 -3,0 -4,0 -1,1 -2,1 -2,2 -1,1 -2,2 -2,3 -1,1 -1,2 -1,3 0,2 0,3 1,4 0,1 1,2 2,3 0,1 1,1 2,2 1,0 2,0 4,0 1,0 2,0 3,0 1,-1 2,-1 3,-2 0,-1 1,-2 2,-3 0,-1 0,-2 0,-4 0,-1 0,-2 0,-3 -1,-1 -1,-2 -2,-3 -1,-1 -2,-1 -3,-2 -1,0 -2,0 -3,0z"/>
      <path class="fil6" d="M176 100c-2,0 -5,0 -8,-1 -2,-1 -4,-2 -6,-4 -2,-2 -3,-4 -4,-6 -1,-2 -2,-4 -2,-7 0,-2 1,-4 2,-6 1,-3 2,-4 4,-6 2,-2 4,-3 6,-4 3,-1 6,-1 8,-1 3,0 6,0 8,1 3,1 5,2 7,4 2,2 3,3 4,6 1,2 2,4 2,6 0,3 -1,5 -2,7 -1,2 -2,4 -4,6 -2,2 -4,3 -7,4 -2,1 -5,1 -8,1zm0 -26c-1,0 -2,0 -3,0 -1,1 -2,1 -3,2 -1,1 -1,2 -2,3 0,1 -1,2 -1,3 0,2 1,3 1,4 1,1 1,2 2,3 1,0 2,1 3,1 1,1 2,1 3,1 1,0 3,0 4,-1 1,0 2,-1 3,-1 0,-1 1,-2 2,-3 0,-1 0,-2 0,-4 0,-1 0,-2 -1,-3 0,-1 -1,-2 -2,-3 0,-1 -1,-1 -2,-2 -1,0 -3,0 -4,0z"/>
      <polygon class="fil6" points="218,85 228,65 240,65 224,100 213,100 196,65 209,65 "/>
      <path class="fil6" d="M126 67c3,-2 5,-2 8,-2 3,0 5,0 7,1 2,1 4,2 6,3 1,2 3,3 3,5 1,2 2,4 2,6l0 20 -12 0 0 -20c0,-1 0,-2 0,-2 -1,-1 -1,-2 -2,-2 0,-1 -1,-1 -2,-2 -1,0 -2,0 -2,0 -2,0 -3,0 -3,0 -1,1 -2,1 -3,2 -1,0 -1,1 -1,2 -1,1 -1,1 -1,2l0 20 -11 0 0 -35 11 0 0 2z"/>
     </g>
     <path class="fil7" d="M134 107l6 0 0 2 -2 0 0 8 -2 0 0 -8 -2 0 0 -2zm7 0l6 0 0 2 -4 0 0 2 4 0 0 2 -4 0 0 2 4 0 0 2 -6 0 0 -10zm8 0l5 0 0 2 -3 0 0 2 3 0 0 2 -3 0 0 4 -2 0 0 -10zm10 0l2 0 4 10 -2 0 -1 -2 -4 0 -1 2 -2 0 4 -10zm1 2l-1 4 2 0 -1 -4zm13 -2l2 0 0 7c0,1 0,2 0,2 0,1 0,1 -1,1 0,1 -1,1 -1,1 -1,0 -2,-1 -3,-2l1 -1c1,0 1,0 1,1 0,0 0,0 1,0 0,0 0,0 0,-1 0,0 0,0 0,-1l0 -7zm4 0l6 0 0 2 -2 0 0 8 -2 0 0 -8 -2 0 0 -2zm7 0l2 0 0 10 -2 0 0 -10zm8 0l2 0 0 10 -2 0 0 -10zm4 0l2 0 5 7 0 -7 2 0 0 10 -2 0 -5 -7 0 7 -2 0 0 -10zm11 0l2 0 5 7 0 -7 2 0 0 10 -2 0 -5 -7 0 7 -2 0 0 -10zm16 -1c2,0 3,1 4,2 1,1 2,2 2,4 0,2 -1,3 -2,4 -1,1 -2,2 -4,2 -2,0 -3,-1 -4,-2 -1,-1 -1,-2 -1,-4 0,-1 0,-2 0,-3 1,-1 1,-1 2,-2 1,0 2,-1 3,-1zm0 2c-1,0 -2,1 -2,1 -1,1 -1,2 -1,3 0,1 0,2 1,3 0,0 1,1 2,1 1,0 2,-1 3,-1 0,-1 1,-2 1,-3 0,-1 -1,-2 -1,-3 -1,0 -2,-1 -3,-1zm7 -1l2 0 2 7 3 -7 2 0 -4 10 -2 0 -3 -10zm14 0l2 0 4 10 -2 0 -1 -2 -4 0 -1 2 -2 0 4 -10zm1 2l-1 4 2 0 -1 -4zm6 -2l5 0 0 2 -1 0 0 8 -3 0 0 -8 -1 0 0 -2zm7 0l2 0 0 10 -2 0 0 -10zm9 -1c1,0 3,1 4,2 1,1 1,2 1,4 0,2 0,3 -1,4 -1,1 -3,2 -4,2 -2,0 -3,-1 -4,-2 -1,-1 -2,-2 -2,-4 0,-1 1,-2 1,-3 1,-1 1,-1 2,-2 1,0 2,-1 3,-1zm0 2c-1,0 -2,1 -3,1 0,1 -1,2 -1,3 0,1 1,2 2,3 0,0 1,1 2,1 1,0 2,-1 2,-1 1,-1 1,-2 1,-3 0,-1 0,-2 -1,-3 0,0 -1,-1 -2,-1zm7 -1l2 0 5 7 0 -7 2 0 0 10 -2 0 -5 -7 0 7 -2 0 0 -10z"/>
    </g>
   </g>
  </g>
 </g>
</svg>
