<?xml version="1.0" encoding="UTF-8"?>
<!DOCTYPE svg PUBLIC "-//W3C//DTD SVG 1.1//EN" "http://www.w3.org/Graphics/SVG/1.1/DTD/svg11.dtd">
<!-- Creator: CorelDRAW -->
<svg xmlns="http://www.w3.org/2000/svg" xml:space="preserve" width="500px" height="120px" style="shape-rendering:geometricPrecision; text-rendering:geometricPrecision; image-rendering:optimizeQuality; fill-rule:evenodd; clip-rule:evenodd"
viewBox="0 0 500 120"
 xmlns:xlink="http://www.w3.org/1999/xlink">
 <defs>
  <style type="text/css">
   <![CDATA[
    .fil2 {fill:#2C3E50}
    .fil0 {fill:#34495E}
    .fil1 {fill:#3498DB}
    .fil3 {fill:#34495E;fill-rule:nonzero}
   ]]>
  </style>
 </defs>
 <g id="Layer_x0020_1">
  <metadata id="CorelCorpID_0Corel-Layer"/>
  <g id="_258175072">
   <g>
    <path id="_259109568" class="fil0" d="M94.7767 9.96617c1.15394,0 2.29961,0.0389765 3.43466,0.11693l4.53545 -7.39491 6.23506 1.24607 1.33465 8.5016c2.35749,0.772443 4.6382,1.71615 6.82561,2.81576l6.96734 -5.08112 5.29254 3.52442 -2.0126 8.41774c1.86969,1.61812 3.61773,3.37206 5.22758,5.24765l8.49215 -2.02442 3.52088 5.29372 -5.16143 7.0701c1.06181,2.14135 1.97717,4.36891 2.72717,6.67207l8.70475 1.37245 1.24252 6.23506 -7.60396 4.65946c0.0661419,1.05591 0.103937,2.12127 0.103937,3.19371 0,1.18583 -0.0425198,2.36221 -0.125197,3.52678l7.80357 4.85435 -1.28504 6.22679 -9.00711 1.35c-6.65435,19.7138 -25.2934,33.9096 -47.2525,33.9096 -21.9225,0 -40.5391,-14.1473 -47.223,-33.8103l-9.08743 -1.45867 -1.23426 -6.23742 7.80829 -4.77049c-0.0850396,-1.18583 -0.129922,-2.38229 -0.129922,-3.59056 0,-1.16693 0.0401576,-2.32442 0.119292,-3.47245l-7.6264 -4.62757 1.21654 -6.23978 8.83822 -1.43268c0.742916,-2.22875 1.63938,-4.38663 2.67521,-6.46301l-5.35041 -7.2638 3.49844 -5.30789 8.88074 2.07284c1.5189,-1.74449 3.1571,-3.38151 4.90159,-4.89923l-2.10355 -8.24176 5.23702 -3.60592 7.05475 4.98191c2.15788,-1.0937 4.40553,-2.03623 6.72994,-2.81221l1.22835 -8.67995 6.2138 -1.34056 4.81773 7.58861c1.16693,-0.0814963 2.34686,-0.122835 3.53505,-0.122835zm0 6.48663c23.9576,0 43.3797,19.4221 43.3797,43.3797 0,23.9587 -19.4221,43.3808 -43.3797,43.3808 -23.9576,0 -43.3797,-19.4221 -43.3797,-43.3808 0,-23.9576 19.4221,-43.3797 43.3797,-43.3797z"/>
    <path id="_259109376" class="fil1" d="M94.7767 19.3713c22.3465,0 40.4612,18.1158 40.4612,40.4612 0,22.3465 -18.1146,40.4623 -40.4612,40.4623 -22.3465,0 -40.4612,-18.1158 -40.4612,-40.4623 0,-22.3453 18.1146,-40.4612 40.4612,-40.4612z"/>
    <path id="_259109232" class="fil0" d="M69.2447 38.8572l51.0639 0c0.311812,0 0.566931,0.255119 0.566931,0.566931l0 31.9336c0,0.311812 -0.255119,0.566931 -0.566931,0.566931l-51.0639 0c-0.311812,0 -0.566931,-0.255119 -0.566931,-0.566931l0 -31.9336c0,-0.311812 0.255119,-0.566931 0.566931,-0.566931zm3.78899 4.35592l43.486 0 0 24.3556 -43.486 0 0 -24.3556z"/>
    <path id="_259109064" class="fil0" d="M109.605 55.0809c1.43268,0.408663 2.48032,1.72678 2.48032,3.29056 0,1.88977 -1.53189,3.42048 -3.42048,3.42048l-27.7773 0c-1.88859,0 -3.42048,-1.53071 -3.42048,-3.42048 0,-1.67717 1.20591,-3.07206 2.79804,-3.36497 -0.00118111,-0.0437009 -0.00236221,-0.0862207 -0.00236221,-0.129922 0,-2.41891 1.95945,-4.37836 4.37836,-4.37836 0.386222,0 0.760632,0.0496065 1.11733,0.144095 -0.00944885,-0.120473 -0.0141733,-0.242127 -0.0141733,-0.364962 0,-2.56064 2.0752,-4.63584 4.63584,-4.63584 1.05827,0 2.03505,0.355513 2.81576,0.953153 1.22717,-1.43859 3.05434,-2.3504 5.09411,-2.3504 3.69804,0 6.69569,2.99765 6.69569,6.69569 0,0.151182 -0.00590553,0.302363 -0.0153544,0.452364 0.101575,-0.00708664 0.205512,-0.01063 0.30945,-0.01063 2.18741,0 3.99923,1.60276 4.32521,3.69922z"/>
    <g>
     <path id="_259108992" class="fil1" d="M98.7452 64.2167l0 0 -3.05198 3.19607 -0.233859 -2.38229c-0.0342521,-0.349607 -0.331891,-0.617718 -0.682679,-0.617718 -0.350789,0 -0.648427,0.268111 -0.682679,0.617718l-0.233859 2.38229 -1.39725 -1.46221 -7.16105 -7.50357 0.630711 -0.752365c2.19922,-2.62324 5.42128,-4.13033 8.84412,-4.13033 3.42285,0 6.6449,1.50709 8.84412,4.13033l0.630711 0.752365 -5.50632 5.7697z"/>
    </g>
    <g>
     <path id="_259108704" class="fil2" d="M94.7767 54.6628c3.21379,0 6.08742,1.45276 8.00199,3.73702l-1.22835 1.28741c-1.58859,-1.98662 -4.0323,-3.25867 -6.77364,-3.25867 -2.74135,0 -5.18506,1.27205 -6.77364,3.25867l-1.22835 -1.28741c1.91457,-2.28426 4.7882,-3.73702 8.00199,-3.73702z"/>
     <path id="_259108536" class="fil1" d="M94.7767 56.4285c2.74135,0 5.18506,1.27205 6.77364,3.25867l-0.780711 0.817325c-1.37953,-1.79882 -3.5504,-2.95749 -5.99293,-2.95749 -2.44253,0 -4.6134,1.15867 -5.99293,2.95749l-0.780711 -0.817325c1.58859,-1.98662 4.0323,-3.25867 6.77364,-3.25867z"/>
     <path id="_259108368" class="fil2" d="M94.7767 57.547c2.44253,0 4.6134,1.15867 5.99293,2.95749l-1.2378 1.29685c-1.04528,-1.50355 -2.78505,-2.48859 -4.75513,-2.48859 -1.97008,0 -3.70985,0.985042 -4.75513,2.48859l-1.2378 -1.29685c1.37953,-1.79882 3.5504,-2.95749 5.99293,-2.95749z"/>
     <path id="_259108200" class="fil1" d="M94.7767 59.3128c1.97008,0 3.70985,0.985042 4.75513,2.48859l-0.792522 0.830318c-0.824412,-1.32166 -2.29016,-2.2004 -3.96261,-2.2004 -1.67245,0 -3.1382,0.878743 -3.96261,2.2004l-0.792522 -0.830318c1.04528,-1.50355 2.78505,-2.48859 4.75513,-2.48859z"/>
     <path id="_259108032" class="fil2" d="M94.7767 60.4313c1.67245,0 3.1382,0.878743 3.96261,2.2004l-1.28504 1.34646c-0.43819,-1.04646 -1.47166,-1.78111 -2.67757,-1.78111 -1.20591,0 -2.23938,0.734648 -2.67757,1.78111l-1.28504 -1.34646c0.824412,-1.32166 2.29016,-2.2004 3.96261,-2.2004z"/>
     <path id="_259107768" class="fil1" d="M94.7767 62.197c1.20591,0 2.23938,0.734648 2.67757,1.78111l-0.902365 0.944885c-0.088583,-0.902365 -0.849215,-1.60749 -1.7752,-1.60749 -0.925987,0 -1.68662,0.70512 -1.7752,1.60749l-0.902365 -0.944885c0.43819,-1.04646 1.47166,-1.78111 2.67757,-1.78111z"/>
    </g>
    <path id="_259103592" class="fil2" d="M94.7767 63.3156c0.985042,0 1.78465,0.798428 1.78465,1.78465 0,0.985042 -0.799609,1.78347 -1.78465,1.78347 -0.985042,0 -1.78465,-0.798428 -1.78465,-1.78347 0,-0.986224 0.799609,-1.78465 1.78465,-1.78465z"/>
    <path id="_259105080" class="fil0" d="M126.802 74.5325c-0.570474,3.65434 -3.75237,6.47482 -7.56026,6.47482l-48.9309 0c-3.80789,0 -6.98979,-2.82048 -7.56026,-6.47482l64.0514 0zm-36.6733 1.99725l9.2705 0 0 2.13426 -9.2705 0 0 -2.13426z"/>
    <path id="_259105008" class="fil3" d="M54.9002 94.7625l-3.57048 2.89135 -1.14449 -1.41378 3.57048 -2.89135 -1.05827 -1.3063 1.10079 -0.891735 3.27403 4.04293 -1.10079 0.891735 -1.07126 -1.32284zm-1.63819 5.03033l4.17521 -4.32403 2.69292 2.6008 -0.983861 1.01811 -1.39016 -1.34174 -0.607089 0.630711 1.30394 1.26024 -0.985042 1.01929 -1.30394 -1.26024 -0.614175 0.635435 1.48819 1.43859 -0.983861 1.01929 -2.79213 -2.69647zm6.32837 5.71065l0.611813 -2.80158c0.00826774,-0.0271654 0.0177166,-0.0602364 0.0283465,-0.0992129 0.0129922,-0.0401576 0.0248032,-0.0814963 0.0377954,-0.119292 0.0129922,-0.0401576 0.0271654,-0.0791341 0.0401576,-0.114567 0.0141733,-0.0342521 0.0271654,-0.0649608 0.0377954,-0.0874019l-0.0153544 -0.0129922 -1.89804 2.263 -1.3878 -1.16457 3.8634 -4.60395 1.38662 1.16457 -1.83662 2.18977 0.0153544 0.0129922c0.0425198,-0.0259843 0.103937,-0.0578742 0.18189,-0.0992129 0.0791341,-0.0401576 0.152363,-0.0755908 0.225591,-0.1063l2.48623 -1.09843 1.6441 1.37953 -3.15001 1.10079 -0.588191 3.60828 -1.68308 -1.41142zm6.04726 4.12797l-0.200788 -3.58702c-0.00708664,-0.152363 -0.0118111,-0.289371 -0.0129922,-0.411025 -0.00118111,-0.121654 0.00118111,-0.233859 0.00708664,-0.334253l-0.0141733 -0.00944885c-0.0744097,0.129922 -0.152363,0.263387 -0.236221,0.401576 -0.0862207,0.139371 -0.180709,0.28819 -0.285828,0.44882l-1.37363 2.11654 -1.4067 -0.912995 3.27284 -5.04096 1.43504 0.931893 0.201969 3.42048c0.00236221,0.0437009 0.00354332,0.0968507 0.00826774,0.158268 0.00118111,0.0625986 0.00472442,0.126378 0.00590553,0.190158 0.00118111,0.0637797 0.00236221,0.126378 0.00236221,0.185434 -0.00118111,0.0590553 -0.00590553,0.111024 -0.0118111,0.152363l0.0141733 0.00944885c0.0437009,-0.0933074 0.0980318,-0.190158 0.159449,-0.28819 0.0625986,-0.0980318 0.11693,-0.185434 0.165355,-0.259843l1.46811 -2.26064 1.4067 0.914176 -3.27403 5.03978 -1.33111 -0.86457zm2.83938 1.52126l2.72836 -5.35513 1.61339 0.823231 -2.72836 5.35513 -1.61339 -0.823231zm6.22915 2.74371l-0.283465 -2.85355c-0.00118111,-0.0283465 -0.00236221,-0.0625986 -0.00472442,-0.103937 0,-0.0413387 -0.00118111,-0.0838585 0,-0.124016 0,-0.0425198 0.00118111,-0.0838585 0.00236221,-0.121654 0.00236221,-0.0377954 0.00590553,-0.0696853 0.00944885,-0.0944885l-0.0188977 -0.00826774 -1.1067 2.74017 -1.67953 -0.679136 2.25119 -5.57246 1.67953 0.677955 -1.07008 2.6504 0.0177166 0.00826774c0.0342521,-0.0377954 0.0814963,-0.0874019 0.142914,-0.151182 0.0625986,-0.0625986 0.121654,-0.118111 0.18189,-0.170079l2.0256 -1.813 1.98898 0.804333 -2.65513 2.01969 0.55512 3.61418 -2.03623 -0.823231zm8.23703 2.32796l1.0441 -5.9197 1.78347 0.314174 -1.0441 5.9197 -1.78347 -0.314174zm7.5579 1.08189l-1.75276 -3.13702c-0.0732286,-0.132284 -0.137008,-0.255119 -0.191339,-0.363781 -0.0543309,-0.108662 -0.101575,-0.210237 -0.140552,-0.302363l-0.0165355 -0.00236221c-0.00944885,0.148819 -0.0212599,0.303544 -0.0366143,0.464175 -0.0153544,0.161812 -0.0366143,0.338977 -0.0590553,0.529136l-0.308269 2.50513 -1.66418 -0.204331 0.732286 -5.96577 1.69725 0.207875 1.6819 2.98584c0.0212599,0.0389765 0.0460631,0.0850396 0.0767719,0.139371 0.0283465,0.055512 0.0590553,0.111024 0.088583,0.167717 0.0295277,0.0566931 0.0566931,0.112205 0.0838585,0.165355 0.0248032,0.0543309 0.0437009,0.102756 0.055512,0.142914l0.0177166 0.00236221c-0.00236221,-0.103937 0.00354332,-0.214961 0.0165355,-0.329529 0.0129922,-0.114567 0.0248032,-0.217324 0.0354332,-0.305906l0.328347 -2.67521 1.66418 0.204331 -0.732286 5.96577 -1.57678 -0.193701zm4.9323 -4.48584l0.0377954 1.08071 1.78465 -0.0625986 0.0496065 1.41615 -1.78465 0.0614175 0.0732286 2.09528 -1.81064 0.0625986 -0.210237 -6.00592 3.76655 -0.132284 0.0496065 1.41615 -1.95591 0.0685042zm8.83822 0.924806c0.0496065,0.474805 0.0177166,0.910633 -0.0980318,1.30867 -0.115748,0.399214 -0.295277,0.748821 -0.542128,1.04764 -0.244489,0.300001 -0.542128,0.542128 -0.89646,0.72638 -0.353151,0.185434 -0.741735,0.300001 -1.16693,0.343702 -0.412206,0.0437009 -0.805514,0.0141733 -1.18347,-0.0850396 -0.375592,-0.101575 -0.714569,-0.26693 -1.01339,-0.499608 -0.297639,-0.230316 -0.54449,-0.52323 -0.741735,-0.879924 -0.194883,-0.356694 -0.317718,-0.767719 -0.367324,-1.23426 -0.0484253,-0.466537 -0.0188977,-0.902365 0.0909452,-1.30748 0.107481,-0.405119 0.283465,-0.761813 0.52323,-1.0689 0.240946,-0.307088 0.540947,-0.557482 0.900003,-0.752365 0.361418,-0.193701 0.7689,-0.312993 1.22126,-0.361418 0.428742,-0.044882 0.830318,-0.0153544 1.20591,0.0897641 0.376773,0.105118 0.709845,0.27756 0.998035,0.514962 0.289371,0.238583 0.526773,0.538584 0.714569,0.902365 0.186615,0.363781 0.305906,0.783073 0.355513,1.25552zm-1.90394 0.250394c-0.0271654,-0.2563 -0.0767719,-0.479529 -0.148819,-0.672049 -0.0720475,-0.191339 -0.161812,-0.350789 -0.268111,-0.475986 -0.108662,-0.125197 -0.230316,-0.214961 -0.367324,-0.270473 -0.134646,-0.0566931 -0.282284,-0.0755908 -0.441734,-0.0590553 -0.201969,0.0212599 -0.370867,0.0814963 -0.507876,0.180709 -0.135827,0.0968507 -0.242127,0.222048 -0.318899,0.374411 -0.0755908,0.15 -0.125197,0.323623 -0.147638,0.516143 -0.022441,0.193701 -0.022441,0.398033 0,0.610632 0.0295277,0.279922 0.0862207,0.5126 0.167717,0.701577 0.0814963,0.188977 0.179528,0.34134 0.296458,0.454726 0.115748,0.112205 0.243308,0.190158 0.382678,0.232678 0.139371,0.0425198 0.281103,0.0566931 0.426379,0.0413387 0.137008,-0.0141733 0.269292,-0.0578742 0.394489,-0.132284 0.124016,-0.0732286 0.230316,-0.175985 0.32008,-0.310631 0.0874019,-0.134646 0.152363,-0.301182 0.19252,-0.499608 0.0413387,-0.197245 0.0472442,-0.429923 0.0200788,-0.692128zm6.8516 1.57087l-1.13977 -1.24016c-0.0838585,-0.0909452 -0.159449,-0.170079 -0.226772,-0.23504 -0.0685042,-0.0661419 -0.132284,-0.11693 -0.19252,-0.155906 -0.0590553,-0.0377954 -0.119292,-0.0625986 -0.175985,-0.0744097 -0.0578742,-0.0118111 -0.119292,-0.00944885 -0.184253,0.00708664l-0.206694 0.0507876 0.511419 2.0504 -1.75749 0.43819 -1.45512 -5.83112 2.33623 -0.582285c0.816144,-0.204331 1.45158,-0.220867 1.90631,-0.0507876 0.455907,0.17126 0.750002,0.522049 0.883467,1.05591 0.0543309,0.219686 0.0708664,0.425198 0.0496065,0.616537 -0.0212599,0.190158 -0.0708664,0.368505 -0.152363,0.530317 -0.0803152,0.162993 -0.187796,0.310631 -0.323623,0.444096 -0.134646,0.133465 -0.28819,0.251576 -0.461812,0.354332l0.00944885 0.0366143c0.0980318,0.0165355 0.190158,0.0389765 0.27756,0.0696853 0.0874019,0.0295277 0.172441,0.0685042 0.257481,0.11693 0.0862207,0.0472442 0.173623,0.107481 0.261024,0.175985 0.088583,0.0708664 0.18189,0.155906 0.282284,0.253938l1.48229 1.4752 -1.98071 0.493702zm-1.50591 -3.85277c-0.0484253,-0.196064 -0.146457,-0.335434 -0.294095,-0.419293 -0.147638,-0.0838585 -0.349607,-0.0944885 -0.604726,-0.0307088l-0.361418 0.0897641 0.333072 1.33465 0.316536 -0.0791341c0.135827,-0.0342521 0.246851,-0.0838585 0.336615,-0.152363 0.088583,-0.0661419 0.157087,-0.140552 0.201969,-0.222048 0.0472442,-0.0826774 0.077953,-0.168898 0.0874019,-0.259843 0.01063,-0.0909452 0.00590553,-0.178347 -0.0153544,-0.261024zm9.60357 1.17992l-1.23426 -3.05434c-0.0389765,-0.0980318 -0.0803152,-0.204331 -0.121654,-0.315355 -0.0425198,-0.111024 -0.0838585,-0.220867 -0.122835,-0.329529 -0.0389765,-0.109843 -0.0767719,-0.212599 -0.112205,-0.314174 -0.0342521,-0.100394 -0.0637797,-0.187796 -0.0909452,-0.261024l-0.0460631 0.0188977c0.0177166,0.0897641 0.0354332,0.183071 0.0543309,0.279922 0.0188977,0.0992129 0.0354332,0.19252 0.0519687,0.282284 0.0177166,0.088583 0.0307088,0.17126 0.044882,0.246851 0.0118111,0.0755908 0.0200788,0.133465 0.0248032,0.177166l0.53386 3.68151 -1.57678 0.636616 -2.19804 -2.9634c-0.0248032,-0.0318899 -0.0602364,-0.0838585 -0.105118,-0.154725 -0.044882,-0.0696853 -0.0956696,-0.146457 -0.15,-0.231497 -0.0543309,-0.0826774 -0.109843,-0.168898 -0.164174,-0.2563 -0.0543309,-0.0874019 -0.103937,-0.164174 -0.145276,-0.232678l-0.0472442 0.0200788c0.0543309,0.121654 0.115748,0.253938 0.183071,0.400395 0.0649608,0.145276 0.131103,0.289371 0.196064,0.435828 0.0649608,0.145276 0.126378,0.285828 0.184253,0.419293 0.0602364,0.134646 0.108662,0.252757 0.15,0.354332l1.06063 2.62678 -1.47166 0.595277 -2.25119 -5.57246 2.51457 -1.01693 1.98898 2.71773c0.0318899,0.0413387 0.067323,0.0956696 0.1063,0.158268 0.0389765,0.0649608 0.0791341,0.131103 0.121654,0.201969 0.0425198,0.0708664 0.0838585,0.141733 0.125197,0.21378 0.0413387,0.0720475 0.0767719,0.137008 0.105118,0.194883l0.0236221 -0.00944885c-0.0177166,-0.0661419 -0.0354332,-0.137008 -0.055512,-0.217324 -0.0212599,-0.0791341 -0.0389765,-0.158268 -0.0566931,-0.239765 -0.0165355,-0.0803152 -0.0342521,-0.157087 -0.0496065,-0.232678 -0.0141733,-0.0755908 -0.0283465,-0.142914 -0.0389765,-0.201969l-0.50197 -3.30001 2.4756 -0.999216 2.25119 5.57246 -1.65591 0.668506zm6.42404 -3.2634l-0.767719 -0.839766 -1.56969 0.870475 0.287009 1.10552 -1.71142 0.948428 -1.10315 -6.25986 1.96536 -1.09016 4.61812 4.31222 -1.71851 0.953153zm-2.8441 -3.02836c-0.0472442,-0.0507876 -0.0933074,-0.103937 -0.139371,-0.157087 -0.044882,-0.0519687 -0.0874019,-0.102756 -0.126378,-0.148819 -0.0377954,-0.0484253 -0.0720475,-0.0921263 -0.100394,-0.132284 -0.0295277,-0.0401576 -0.0519687,-0.0720475 -0.067323,-0.0944885l-0.0366143 0.0200788c0.022441,0.0519687 0.0519687,0.133465 0.0874019,0.249213 0.0366143,0.114567 0.0720475,0.238583 0.109843,0.374411l0.42756 1.67127 1.00394 -0.557482 -1.15867 -1.22481zm4.95356 -3.79844l2.70001 3.71576 -1.47048 1.0689 -2.70119 -3.71576 -1.35945 0.987405 -0.83268 -1.14567 4.20828 -3.05788 0.83268 1.14567 -1.37717 1.00158zm5.0386 1.95001l-3.8634 -4.60395 1.3878 -1.16457 3.8634 4.60395 -1.3878 1.16457zm4.97482 -4.57088l-2.72245 -0.901184c-0.0259843,-0.01063 -0.0578742,-0.0236221 -0.0956696,-0.0389765 -0.0389765,-0.0165355 -0.077953,-0.0318899 -0.114567,-0.0507876 -0.0389765,-0.0165355 -0.0755908,-0.0342521 -0.109843,-0.0507876 -0.033071,-0.0177166 -0.0625986,-0.033071 -0.0826774,-0.0472442l-0.0153544 0.0141733 2.05276 2.12481 -1.30276 1.25906 -4.17521 -4.32403 1.30276 -1.25788 1.98544 2.05631 0.0141733 -0.0141733c-0.0200788,-0.0460631 -0.0460631,-0.109843 -0.0791341,-0.191339 -0.0318899,-0.0826774 -0.0590553,-0.16063 -0.0814963,-0.236221l-0.83268 -2.58662 1.54371 -1.49174 0.765357 3.24804 3.52796 0.962601 -1.58032 1.52599zm4.52482 -5.13309l-1.02638 -0.490159 -1.12796 1.39489 0.679136 0.916538 -1.23071 1.52126 -3.36851 -5.39175 1.41378 -1.74567 5.89844 2.26772 -1.2378 1.52717zm-3.77127 -1.74213c-0.0625986,-0.0295277 -0.125197,-0.0614175 -0.187796,-0.0933074 -0.0614175,-0.0318899 -0.119292,-0.0614175 -0.172441,-0.0909452 -0.0531498,-0.0295277 -0.101575,-0.0578742 -0.144095,-0.0850396 -0.0413387,-0.0259843 -0.0732286,-0.0472442 -0.0968507,-0.0614175l-0.0259843 0.0318899c0.0401576,0.0401576 0.0980318,0.105118 0.174804,0.198426 0.0755908,0.0933074 0.155906,0.193701 0.240946,0.305906l1.02284 1.38898 0.722837 -0.892916 -1.53426 -0.701577z"/>
   </g>
   <polygon id="_259104576" class="fil3" points="211.295,80.4168 227.22,80.4168 210.069,57.5506 226.403,39.5836 211.411,39.5836 197.995,54.4006 197.995,39.5836 184.462,39.5836 184.462,80.4168 197.995,80.4168 197.995,70.3254 201.087,66.8837 "/>
   <polygon id="_2591045761" class="fil3" points="242.619,70.0337 242.619,64.6667 259.886,64.6667 259.886,54.7502 242.619,54.7502 242.619,49.9667 262.278,49.9667 262.278,39.5836 229.086,39.5836 229.086,80.4168 263.036,80.4168 263.036,70.0337 "/>
   <polygon id="_25910457612" class="fil3" points="317.343,80.4168 317.226,39.5836 305.91,39.5836 292.96,61.3419 279.66,39.5836 268.344,39.5836 268.344,80.4168 280.886,80.4168 280.886,62.4498 289.752,76.7424 295.819,76.7424 304.685,61.8085 304.802,80.4168 "/>
   <path id="_259104576123" class="fil3" d="M354.559 80.4168l14.2335 0 -17.8501 -40.8332 -13.5331 0 -17.8489 40.8332 13.9997 0 2.74135 -7.11616 15.5162 0 2.74135 7.11616zm-14.4662 -17.0327l3.96734 -10.2674 3.96615 10.2674 -7.93349 0z"/>
   <polygon id="_2591045761234" class="fil3" points="379.876,80.4168 393.643,80.4168 393.643,50.2584 405.6,50.2584 405.6,39.5836 367.918,39.5836 367.918,50.2584 379.876,50.2584 "/>
   <polygon id="_25910457612345" class="fil3" points="409.159,80.4168 422.926,80.4168 422.926,39.5836 409.159,39.5836 "/>
   <polygon id="_259104576123456" class="fil3" points="462.767,49.9667 462.767,39.5836 429.575,39.5836 429.575,80.4168 443.342,80.4168 443.342,67.3502 460.375,67.3502 460.375,56.9671 443.342,56.9671 443.342,49.9667 "/>
  </g>
 </g>
</svg>
